<svg width="200" height="100" viewBox="0 0 200 100" fill="none" xmlns="http://www.w3.org/2000/svg">
<g clip-path="url(#clip0_2106_2)">
<path fill-rule="evenodd" clip-rule="evenodd" d="M44.4618 77.8512V49.8965C33.4023 53.0132 27.2414 61.1134 27.2414 68.8267C27.2414 75.2258 30.8747 79.4924 37.8264 79.4924C40.3541 79.4924 42.7235 78.8353 44.4618 77.8512ZM47.9692 77.2018C43.5466 83.9295 35.9637 90 25.8516 90C16.2156 90 8 82.7181 8 70.5187C8 52.7952 29.6431 46.6203 47.4962 42.6823V34.0447C47.4962 24.5274 43.5466 19.9338 32.3289 19.9338C26.168 19.9338 18.9014 21.2449 11.7915 24.3631L11.1588 23.2163C18.7432 13.6974 31.2232 5 48.2855 5C65.1897 5 72.9322 13.6974 72.9322 26.4972V68.6686C72.9322 72.6067 74.6691 76.0534 79.7243 76.0534C81.4626 76.0534 83.6739 75.5606 85.7286 74.0836L86.0449 74.7392C83.8321 80.1557 78.3023 89.8373 64.8748 89.8373C55.2373 89.8373 49.3912 84.585 47.9692 77.2018Z" fill="#2E545D"/>
<path fill-rule="evenodd" clip-rule="evenodd" d="M122.556 74.5756C114.13 50.5433 115.357 25.2957 126.371 5.1733L121.651 9.33248L122.212 9.97029C112.746 27.4836 113.082 51.2214 122.556 74.5756ZM130.052 2.32954L128.928 1.05298C128.415 0.471345 127.6 0.352662 127.105 0.788968L83.5146 39.1941C83.0207 39.6293 83.0357 40.4533 83.5481 41.0349L128.773 92.3649C129.285 92.9465 130.101 93.0652 130.595 92.63L131.93 91.4533C132.339 91.0928 132.408 90.4549 132.101 89.8991C116.146 61.2012 115.448 28.2622 130.282 3.93554C130.567 3.46729 130.474 2.80844 130.052 2.32954Z" fill="#D0DBD4"/>
<ellipse cx="169" cy="47" rx="40" ry="45" fill="url(#paint0_linear_2106_2)"/>
</g>
<defs>
<linearGradient id="paint0_linear_2106_2" x1="169" y1="2" x2="169" y2="92" gradientUnits="userSpaceOnUse">
<stop stop-color="#EABB59"/>
<stop offset="1" stop-color="#846932" stop-opacity="0.89"/>
</linearGradient>
<clipPath id="clip0_2106_2">
<rect width="200" height="100" fill="white"/>
</clipPath>
</defs>
</svg>
